HIERARCHY
ROOT Hips
{
	OFFSET 0.000000 121.760803 0.000000
	CHANNELS 6 Xposition Yposition Zposition Xrotation Yrotation Zrotation 
	JOINT Spine
	{
		OFFSET 0.072000 7.257294 -0.789700
		CHANNELS 3 Xrotation Yrotation Zrotation
		JOINT Spine1
		{
			OFFSET 0.000000 12.508769 -0.658067
			CHANNELS 3 Xrotation Yrotation Zrotation
			JOINT Spine1_split
			{
				OFFSET 0.000000 12.508769 -0.658067
				CHANNELS 3 Xrotation Yrotation Zrotation
				JOINT Spine2
				{
					OFFSET 0.000000 12.508769 -0.658067
					CHANNELS 3 Xrotation Yrotation Zrotation
					JOINT Neck
					{
						OFFSET 0.000000 14.033295 7.520400
						CHANNELS 3 Xrotation Yrotation Zrotation
						JOINT Head
						{
							OFFSET 0.000000 8.198502 5.703100
							CHANNELS 3 Xrotation Yrotation Zrotation
							JOINT HeadTop_End
							{
								OFFSET 0.000000 17.760803 13.332701
								CHANNELS 3 Xrotation Yrotation Zrotation
								End Site
								{
									OFFSET 0.000000 0.000000 0.000000
								}
							}
						}
					}
					JOINT LeftShoulder
					{
						OFFSET 6.292450 5.785301 -0.669000
						CHANNELS 3 Xrotation Yrotation Zrotation
						JOINT LeftShoulder_split
						{
							OFFSET 6.292450 5.785301 -0.669000
							CHANNELS 3 Xrotation Yrotation Zrotation
							JOINT LeftArm
							{
								OFFSET 13.907140 -6.093903 1.965100
								CHANNELS 3 Xrotation Yrotation Zrotation
								JOINT LeftForeArm
								{
									OFFSET 34.140198 0.000000 0.000000
									CHANNELS 3 Xrotation Yrotation Zrotation
									JOINT LeftHand
									{
										OFFSET 40.960209 0.000000 0.000000
										CHANNELS 3 Xrotation Yrotation Zrotation
										JOINT LeftHandThumb1
										{
											OFFSET 10.006996 -7.170425 9.573125
											CHANNELS 3 Xrotation Yrotation Zrotation
											JOINT LeftHandThumb2
											{
												OFFSET 1.835007 -1.059448 1.059443
												CHANNELS 3 Xrotation Yrotation Zrotation
												JOINT LeftHandThumb3
												{
													OFFSET 2.112267 -1.219513 1.219518
													CHANNELS 3 Xrotation Yrotation Zrotation
													JOINT LeftHandThumb4
													{
														OFFSET 4.843811 -2.796570 2.796576
														CHANNELS 3 Xrotation Yrotation Zrotation
														End Site
														{
															OFFSET 0.000000 0.000000 0.000000
														}
													}
												}
											}
										}
										JOINT LeftHandIndex1
										{
											OFFSET 18.389847 -0.922348 4.596882
											CHANNELS 3 Xrotation Yrotation Zrotation
											JOINT LeftHandIndex2
											{
												OFFSET 4.711273 0.000000 0.000000
												CHANNELS 3 Xrotation Yrotation Zrotation
												JOINT LeftHandIndex3
												{
													OFFSET 2.886131 0.000000 0.000000
													CHANNELS 3 Xrotation Yrotation Zrotation
													JOINT LeftHandIndex4
													{
														OFFSET 6.145912 0.000000 0.000000
														CHANNELS 3 Xrotation Yrotation Zrotation
														End Site
														{
															OFFSET 0.000000 0.000000 0.000000
														}
													}
												}
											}
										}
										JOINT LeftHandMiddle1
										{
											OFFSET 18.013008 0.000000 0.000000
											CHANNELS 3 Xrotation Yrotation Zrotation
											JOINT LeftHandMiddle2
											{
												OFFSET 4.946693 0.000000 0.000000
												CHANNELS 3 Xrotation Yrotation Zrotation
												JOINT LeftHandMiddle3
												{
													OFFSET 3.342232 0.000000 0.000000
													CHANNELS 3 Xrotation Yrotation Zrotation
													JOINT LeftHandMiddle4
													{
														OFFSET 4.461754 0.000000 0.000000
														CHANNELS 3 Xrotation Yrotation Zrotation
														End Site
														{
															OFFSET 0.000000 0.000000 0.000000
														}
													}
												}
											}
										}
										JOINT LeftHandRing1
										{
											OFFSET 15.849892 -0.102921 -4.126150
											CHANNELS 3 Xrotation Yrotation Zrotation
											JOINT LeftHandRing2
											{
												OFFSET 3.527054 0.000000 0.000000
												CHANNELS 3 Xrotation Yrotation Zrotation
												JOINT LeftHandRing3
												{
													OFFSET 2.961098 0.000000 0.000000
													CHANNELS 3 Xrotation Yrotation Zrotation
													JOINT LeftHandRing4
													{
														OFFSET 4.927200 0.000000 0.000000
														CHANNELS 3 Xrotation Yrotation Zrotation
														End Site
														{
															OFFSET 0.000000 0.000000 0.000000
														}
													}
												}
											}
										}
										JOINT LeftHandPinky1
										{
											OFFSET 12.791824 -0.832031 -6.799156
											CHANNELS 3 Xrotation Yrotation Zrotation
											JOINT LeftHandPinky2
											{
												OFFSET 3.327133 0.000000 0.000000
												CHANNELS 3 Xrotation Yrotation Zrotation
												JOINT LeftHandPinky3
												{
													OFFSET 3.014900 0.000000 0.000000
													CHANNELS 3 Xrotation Yrotation Zrotation
													JOINT LeftHandPinky4
													{
														OFFSET 5.847786 0.000000 0.000000
														CHANNELS 3 Xrotation Yrotation Zrotation
														End Site
														{
															OFFSET 0.000000 0.000000 0.000000
														}
													}
												}
											}
										}
									}
								}
							}
						}
					}
					JOINT RightShoulder
					{
						OFFSET -6.292450 5.785301 -0.669000
						CHANNELS 3 Xrotation Yrotation Zrotation
						JOINT RightShoulder_split
						{
							OFFSET -6.292450 5.785301 -0.669000
							CHANNELS 3 Xrotation Yrotation Zrotation
							JOINT RightArm
							{
								OFFSET -13.907140 -6.093903 1.965100
								CHANNELS 3 Xrotation Yrotation Zrotation
								JOINT RightForeArm
								{
									OFFSET -34.140198 0.000000 0.000000
									CHANNELS 3 Xrotation Yrotation Zrotation
									JOINT RightHand
									{
										OFFSET -40.960209 0.000000 0.000000
										CHANNELS 3 Xrotation Yrotation Zrotation
										JOINT RightHandThumb1
										{
											OFFSET -10.007050 -7.170456 9.573117
											CHANNELS 3 Xrotation Yrotation Zrotation
											JOINT RightHandThumb2
											{
												OFFSET -1.835007 -1.059448 1.059443
												CHANNELS 3 Xrotation Yrotation Zrotation
												JOINT RightHandThumb3
												{
													OFFSET -2.112267 -1.219513 1.219518
													CHANNELS 3 Xrotation Yrotation Zrotation
													JOINT RightHandThumb4
													{
														OFFSET -4.843834 -2.796585 2.796590
														CHANNELS 3 Xrotation Yrotation Zrotation
														End Site
														{
															OFFSET 0.000000 0.000000 0.000000
														}
													}
												}
											}
										}
										JOINT RightHandIndex1
										{
											OFFSET -18.389870 -0.922424 4.596786
											CHANNELS 3 Xrotation Yrotation Zrotation
											JOINT RightHandIndex2
											{
												OFFSET -4.711273 0.000000 0.000000
												CHANNELS 3 Xrotation Yrotation Zrotation
												JOINT RightHandIndex3
												{
													OFFSET -2.886131 0.000000 0.000000
													CHANNELS 3 Xrotation Yrotation Zrotation
													JOINT RightHandIndex4
													{
														OFFSET -6.145920 0.000000 0.000000
														CHANNELS 3 Xrotation Yrotation Zrotation
														End Site
														{
															OFFSET 0.000000 0.000000 0.000000
														}
													}
												}
											}
										}
										JOINT RightHandMiddle1
										{
											OFFSET -18.013008 0.000000 0.000000
											CHANNELS 3 Xrotation Yrotation Zrotation
											JOINT RightHandMiddle2
											{
												OFFSET -4.946693 0.000000 0.000000
												CHANNELS 3 Xrotation Yrotation Zrotation
												JOINT RightHandMiddle3
												{
													OFFSET -3.342232 0.000000 0.000000
													CHANNELS 3 Xrotation Yrotation Zrotation
													JOINT RightHandMiddle4
													{
														OFFSET -4.461754 0.000000 0.000000
														CHANNELS 3 Xrotation Yrotation Zrotation
														End Site
														{
															OFFSET 0.000000 0.000000 0.000000
														}
													}
												}
											}
										}
										JOINT RightHandRing1
										{
											OFFSET -15.849876 -0.102936 -4.126237
											CHANNELS 3 Xrotation Yrotation Zrotation
											JOINT RightHandRing2
											{
												OFFSET -3.527054 0.000000 0.000000
												CHANNELS 3 Xrotation Yrotation Zrotation
												JOINT RightHandRing3
												{
													OFFSET -2.961098 0.000000 0.000000
													CHANNELS 3 Xrotation Yrotation Zrotation
													JOINT RightHandRing4
													{
														OFFSET -4.927200 0.000000 0.000000
														CHANNELS 3 Xrotation Yrotation Zrotation
														End Site
														{
															OFFSET 0.000000 0.000000 0.000000
														}
													}
												}
											}
										}
										JOINT RightHandPinky1
										{
											OFFSET -12.791786 -0.832077 -6.799222
											CHANNELS 3 Xrotation Yrotation Zrotation
											JOINT RightHandPinky2
											{
												OFFSET -3.327133 0.000000 0.000000
												CHANNELS 3 Xrotation Yrotation Zrotation
												JOINT RightHandPinky3
												{
													OFFSET -3.014900 0.000000 0.000000
													CHANNELS 3 Xrotation Yrotation Zrotation
													JOINT RightHandPinky4
													{
														OFFSET -5.847786 0.000000 0.000000
														CHANNELS 3 Xrotation Yrotation Zrotation
														End Site
														{
															OFFSET 0.000000 0.000000 0.000000
														}
													}
												}
											}
										}
									}
								}
							}
						}
					}
				}
			}
		}
	}
	JOINT LeftUpLeg
	{
		OFFSET 13.026900 -6.336304 -1.092800
		CHANNELS 3 Xrotation Yrotation Zrotation
		JOINT LeftLeg
		{
			OFFSET 0.524474 -46.096886 9.782700
			CHANNELS 3 Xrotation Yrotation Zrotation
			JOINT LeftFoot
			{
				OFFSET -0.524474 -53.427422 -12.948200
				CHANNELS 3 Xrotation Yrotation Zrotation
				JOINT LeftToeBase
				{
					OFFSET 0.192200 -14.009700 16.364100
					CHANNELS 3 Xrotation Yrotation Zrotation
					JOINT LeftToe_End
					{
						OFFSET -1.784700 -0.561700 9.474800
						CHANNELS 3 Xrotation Yrotation Zrotation
						End Site
						{
							OFFSET 0.000000 0.000000 0.000000
						}
					}
				}
			}
		}
	}
	JOINT RightUpLeg
	{
		OFFSET -12.883000 -6.336304 -1.092800
		CHANNELS 3 Xrotation Yrotation Zrotation
		JOINT RightLeg
		{
			OFFSET -0.524587 -46.096825 9.782800
			CHANNELS 3 Xrotation Yrotation Zrotation
			JOINT RightFoot
			{
				OFFSET 0.524587 -53.427383 -12.948300
				CHANNELS 3 Xrotation Yrotation Zrotation
				JOINT RightToeBase
				{
					OFFSET -0.192200 -14.009700 16.364100
					CHANNELS 3 Xrotation Yrotation Zrotation
					JOINT RightToe_End
					{
						OFFSET 1.784700 -0.561700 9.474800
						CHANNELS 3 Xrotation Yrotation Zrotation
						End Site
						{
							OFFSET 0.000000 0.000000 0.000000
						}
					}
				}
			}
		}
	}
}
MOTION
Frames: 5
Frame Time: 0.016667
82.180061 115.178352 51.656586 4.608091 68.236322 -3.666675 1.777199 15.882780 -2.937834 0.302477 12.349549 -1.690998 0.000000 0.000000 0.000000 0.319024 12.258870 -2.268429 30.683778 -16.732662 8.274229 -37.265560 -69.684404 -3.375894 0.000000 -0.000000 0.000000 -2.027415 -8.616098 -14.640802 0.000000 0.000000 0.000000 564.659170 -127.569506 506.102155 0.000003 -67.460815 -0.000013 -133.641544 -5.524238 50.251959 -10.936364 -6.746915 10.333071 -18.089304 8.879988 2.392721 2.024253 8.904799 14.660549 0.000000 -0.000001 -0.000001 5.890355 8.200081 -88.621814 6.193158 5.841085 -93.357642 1.838880 4.262286 -46.658108 -0.000001 0.000004 -0.000000 7.765549 7.904029 -107.399486 3.749185 5.461719 -68.913508 2.406837 4.732782 -53.891374 0.000000 -0.000002 -0.000001 7.314729 8.035628 -105.794993 3.608018 5.405439 -67.422915 0.590217 2.564554 -25.917329 -0.000002 0.000000 0.000002 10.390454 6.780241 -113.877142 1.172170 3.517163 -36.854010 0.365891 2.039733 -20.337136 -0.000007 0.000002 0.000002 -8.395407 33.279865 21.038926 0.000000 0.000000 0.000000 6.092960 31.507509 48.663438 0.000031 48.322407 -0.000012 -20.121519 -43.295316 5.646380 17.912431 17.120583 -32.483523 12.694383 -52.014247 20.210830 2.934328 3.697811 -26.040878 -0.000000 0.000002 0.000005 0.276349 -8.899008 1.740159 5.888271 -4.491828 105.344214 2.534059 -4.146025 62.852801 0.000001 -0.000000 -0.000001 4.166154 -8.600796 42.153195 7.050167 -3.996501 120.947132 0.504903 -2.110858 26.901262 -0.000000 -0.000001 -0.000001 -0.361093 -4.549281 57.044244 4.703199 -4.656960 90.567079 2.413042 -4.081869 61.166004 0.000002 -0.000000 0.000000 -5.324599 -0.292076 51.887311 3.524513 -4.517628 75.909268 1.722713 -3.617959 50.911940 -0.000001 0.000003 0.000000 -23.695883 -10.112190 -0.013715 19.405846 0.791985 -8.111467 3.504074 -18.601559 5.880912 0.069465 -2.860530 -0.863378 0.000000 -0.000000 0.000000 1.440381 -14.048050 -0.866721 30.510493 -2.984226 -3.254209 1.540600 -11.965081 9.965932 -16.521208 -0.972806 4.305466 0.000001 -0.000002 0.000001 
81.776886 115.159164 51.488903 4.286038 67.053634 -3.393544 1.760561 15.550985 -2.800490 0.343534 12.111559 -1.597175 0.000000 0.000000 0.000000 0.355241 12.030036 -2.142363 30.067719 -16.587196 7.620748 -36.544432 -68.821847 -2.824771 0.000000 0.000001 0.000000 -1.967088 -8.442194 -14.580903 0.000000 0.000000 0.000000 563.731685 -126.918302 505.300673 0.000009 -66.037329 0.000007 -133.516989 -3.963437 49.001853 -10.936440 -6.746917 10.333394 -18.089304 8.879988 2.392721 2.035130 8.896548 14.627303 -0.000000 0.000001 0.000001 5.890353 8.200078 -88.621827 6.193160 5.841087 -93.357628 1.839653 4.263019 -46.668470 -0.000000 -0.000001 -0.000002 7.765549 7.904037 -107.399513 3.753037 5.463211 -68.954086 2.408246 4.733812 -53.908508 0.000000 -0.000001 -0.000003 7.314730 8.035626 -105.794993 3.608018 5.405433 -67.422901 0.623896 2.632657 -26.660030 -0.000000 0.000000 -0.000001 10.390455 6.780239 -113.877149 1.175916 3.522155 -36.915130 0.382445 2.083815 -20.797077 0.000004 -0.000000 -0.000001 -8.428599 32.859060 21.486423 0.000000 0.000000 0.000000 5.768029 31.090953 48.692022 -0.000023 48.134416 0.000026 -19.465013 -44.389427 4.704326 17.912434 17.120573 -32.483546 12.694390 -52.014250 20.210825 2.934327 3.697809 -26.040882 0.000001 -0.000003 -0.000000 0.276351 -8.899009 1.740166 5.888269 -4.491828 105.344214 2.534427 -4.146213 62.857937 0.000000 -0.000000 0.000001 4.166155 -8.600798 42.153199 7.050169 -3.996502 120.947132 0.504903 -2.110855 26.901284 0.000000 0.000001 -0.000000 -0.361096 -4.549282 57.044230 4.703198 -4.656958 90.567072 2.413043 -4.081868 61.166004 -0.000002 -0.000001 0.000000 -5.324602 -0.292071 51.887294 3.524516 -4.517628 75.909261 1.722709 -3.617959 50.911930 -0.000001 0.000000 0.000000 -23.724614 -9.989766 0.376059 19.508519 1.556515 -8.144978 3.479295 -18.440117 5.671655 0.069551 -2.860530 -0.863371 -0.000000 0.000001 -0.000000 1.670841 -12.386697 -1.357488 29.693373 -3.427932 -3.110679 0.552104 -14.751766 9.648302 -14.776064 -1.193745 6.240958 0.000002 0.000002 -0.000001 
81.353157 115.260414 51.332691 4.025842 65.794966 -3.292730 1.688854 15.210553 -2.576564 0.349806 11.848929 -1.478821 0.000000 0.000000 0.000000 0.356715 11.776930 -1.992126 29.489349 -16.410172 6.935824 -35.776353 -67.919818 -2.237560 -0.000000 0.000001 0.000000 -1.896976 -8.276098 -14.474767 0.000000 0.000000 0.000000 562.789501 -126.168388 504.520666 0.000007 -64.514347 0.000016 -133.165931 -2.289626 47.769315 -10.936563 -6.746920 10.333455 -18.089305 8.879988 2.392720 2.046072 8.888240 14.593864 0.000000 0.000001 0.000001 5.890352 8.200072 -88.621814 6.193146 5.841097 -93.357642 1.839900 4.263245 -46.671799 -0.000002 0.000002 -0.000001 7.765545 7.904032 -107.399486 3.758012 5.465096 -69.006310 2.408697 4.734145 -53.913996 0.000001 0.000000 -0.000000 7.314735 8.035630 -105.794993 3.608009 5.405424 -67.422887 0.659579 2.702503 -27.426925 0.000001 -0.000002 -0.000001 10.390450 6.780248 -113.877121 1.180767 3.528576 -36.993773 0.400203 2.129988 -21.280501 0.000005 0.000002 0.000001 -8.483179 32.397800 22.014851 0.000000 0.000000 0.000000 5.553988 30.650354 48.597773 0.000010 48.025492 -0.000018 -19.267238 -45.436303 3.569811 17.912427 17.120593 -32.483553 12.694392 -52.014254 20.210832 2.934328 3.697804 -26.040882 -0.000001 0.000002 0.000000 0.276355 -8.899006 1.740150 5.888268 -4.491829 105.344221 2.534560 -4.146280 62.859713 -0.000002 -0.000000 -0.000002 4.166149 -8.600791 42.153209 7.050167 -3.996502 120.947118 0.504906 -2.110858 26.901264 0.000001 0.000000 -0.000000 -0.361093 -4.549279 57.044244 4.703198 -4.656961 90.567072 2.413032 -4.081870 61.166024 0.000002 0.000001 0.000000 -5.324599 -0.292067 51.887311 3.524515 -4.517622 75.909261 1.722706 -3.617969 50.911912 -0.000002 -0.000000 0.000001 -23.580091 -9.845504 0.941265 19.349583 2.380340 -8.156938 3.559586 -18.325830 5.439814 0.069633 -2.860488 -0.863368 0.000000 -0.000001 -0.000000 2.628650 -11.310062 -1.440758 27.890919 -2.009554 -3.086903 -0.023272 -19.654032 9.103167 -13.339026 -1.332318 8.249057 -0.000000 0.000001 -0.000001 
80.932854 115.402832 51.170704 3.816160 64.609259 -3.164254 1.649531 14.827805 -2.440334 0.371863 11.541088 -1.378604 0.000000 0.000000 0.000000 0.372755 11.478288 -1.856315 28.899306 -16.213868 6.271608 -35.170659 -67.009661 -1.806513 -0.000001 -0.000001 -0.000000 -1.822192 -8.117069 -14.348528 0.000000 0.000000 0.000000 561.935728 -125.327824 503.893436 0.000028 -62.965089 0.000026 -132.533114 -0.580737 46.575644 -10.936740 -6.746921 10.333240 -18.089304 8.879991 2.392721 2.057071 8.879869 14.560254 0.000001 -0.000003 -0.000002 5.890363 8.200066 -88.621827 6.193167 5.841067 -93.357621 1.839742 4.263097 -46.669713 -0.000001 -0.000001 0.000004 7.765550 7.904035 -107.399493 3.763881 5.467351 -69.068000 2.408413 4.733933 -53.910550 0.000000 -0.000004 0.000001 7.314736 8.035624 -105.794993 3.608010 5.405424 -67.422901 0.697118 2.773535 -28.212557 0.000002 0.000001 -0.000001 10.390454 6.780240 -113.877121 1.186485 3.536154 -37.086677 0.419074 2.177759 -21.782421 -0.000003 -0.000001 -0.000000 -8.552616 31.896891 22.612287 0.000000 0.000000 0.000000 5.447657 30.142509 48.410868 -0.000014 48.027623 0.000023 -19.755402 -46.276120 2.025951 17.912429 17.120579 -32.483550 12.694390 -52.014250 20.210827 2.934327 3.697807 -26.040885 -0.000001 -0.000003 0.000001 0.276350 -8.899016 1.740175 5.888271 -4.491828 105.344221 2.534507 -4.146252 62.858969 -0.000001 -0.000000 0.000001 4.166153 -8.600803 42.153213 7.050165 -3.996501 120.947132 0.504901 -2.110860 26.901270 0.000002 0.000000 -0.000000 -0.361104 -4.549283 57.044237 4.703198 -4.656961 90.567072 2.413051 -4.081867 61.166024 -0.000003 0.000001 -0.000000 -5.324598 -0.292079 51.887318 3.524514 -4.517628 75.909261 1.722703 -3.617961 50.911926 -0.000001 -0.000000 0.000001 -23.358238 -9.708229 1.414354 19.014207 3.246187 -8.146694 3.732919 -18.263448 5.213711 0.069720 -2.860496 -0.863365 -0.000000 -0.000000 0.000000 3.553333 -11.133353 -1.546013 25.845733 -0.010727 -3.206873 -0.339224 -24.816615 8.387067 -12.798688 -1.466088 9.510197 -0.000001 -0.000001 0.000000 
80.545532 115.578331 50.985325 3.600340 63.531189 -2.872074 1.643640 14.425291 -2.465651 0.384028 11.204910 -1.354484 0.000000 0.000000 0.000000 0.372952 11.147828 -1.802456 28.337763 -15.959454 5.895239 -34.690206 -65.950852 -1.638390 0.000000 -0.000001 -0.000000 -1.753734 -7.966571 -14.248951 0.000000 0.000000 0.000000 561.259266 -124.487041 503.514442 -0.000011 -61.536166 -0.000007 -131.520251 1.050211 45.453915 -10.936918 -6.746888 10.332924 -18.089300 8.879988 2.392720 2.068136 8.871446 14.526429 -0.000001 0.000001 -0.000000 5.890355 8.200068 -88.621814 6.193156 5.841098 -93.357621 1.839419 4.262803 -46.665321 -0.000000 0.000000 0.000000 7.765557 7.904039 -107.399500 3.770406 5.469827 -69.136520 2.407828 4.733512 -53.903276 0.000001 -0.000001 0.000000 7.314740 8.035627 -105.794993 3.607999 5.405424 -67.422881 0.736245 2.845199 -29.010894 0.000001 -0.000002 0.000001 10.390459 6.780247 -113.877142 1.192871 3.544568 -37.189892 0.438841 2.226578 -22.297243 0.000000 0.000001 0.000000 -8.616513 31.369399 23.230769 0.000000 0.000000 0.000000 5.446716 29.578978 48.139986 -0.000017 48.198425 0.000017 -21.028395 -46.822104 -0.047403 17.912434 17.120585 -32.483550 12.694390 -52.014254 20.210834 2.934329 3.697809 -26.040883 -0.000001 0.000005 -0.000000 0.276363 -8.899009 1.740177 5.888269 -4.491828 105.344221 2.534380 -4.146185 62.857152 -0.000000 -0.000001 -0.000004 4.166163 -8.600789 42.153209 7.050172 -3.996504 120.947132 0.504908 -2.110857 26.901272 0.000001 -0.000000 0.000000 -0.361091 -4.549270 57.044244 4.703198 -4.656955 90.567079 2.413052 -4.081872 61.166011 -0.000002 0.000002 0.000001 -5.324591 -0.292075 51.887315 3.524513 -4.517628 75.909261 1.722704 -3.617956 50.911940 -0.000000 0.000000 0.000001 -23.037938 -9.851499 1.650793 18.496745 4.381417 -8.114271 3.982674 -18.202857 4.959501 0.069804 -2.860470 -0.863358 0.000000 -0.000001 -0.000000 4.790807 -12.333927 -1.406656 23.433850 2.925772 -3.641758 -0.740422 -29.881927 7.357277 -13.565003 -1.438289 9.344130 -0.000000 0.000000 -0.000000 
